HIERARCHY
ROOT Root
{
	OFFSET 0.000000 0.085527 -0.815746
	CHANNELS 6 Xposition Yposition Zposition Xrotation Yrotation Zrotation
	JOINT pelvis
	{
		OFFSET 0.000000 -0.050080 0.832290
		CHANNELS 6 Xposition Yposition Zposition Xrotation Yrotation Zrotation
		JOINT spine_01
		{
			OFFSET 0.000000 0.045650 0.072925
			CHANNELS 6 Xposition Yposition Zposition Xrotation Yrotation Zrotation
			JOINT spine_02
			{
				OFFSET 0.000000 -0.022105 0.063380
				CHANNELS 6 Xposition Yposition Zposition Xrotation Yrotation Zrotation
				JOINT spine_03
				{
					OFFSET 0.000000 -0.012215 0.091100
					CHANNELS 6 Xposition Yposition Zposition Xrotation Yrotation Zrotation
					JOINT clavicle_l
					{
						OFFSET 0.022930 -0.009180 0.229520
						CHANNELS 6 Xposition Yposition Zposition Xrotation Yrotation Zrotation
						JOINT upperarm_l
						{
							OFFSET 0.136756 0.000470 0.015666
							CHANNELS 6 Xposition Yposition Zposition Xrotation Yrotation Zrotation
							JOINT lowerarm_l
							{
								OFFSET 0.234220 0.004524 -0.003137
								CHANNELS 6 Xposition Yposition Zposition Xrotation Yrotation Zrotation
								JOINT hand_l
								{
									OFFSET 0.212684 0.006104 0.000160
									CHANNELS 6 Xposition Yposition Zposition Xrotation Yrotation Zrotation
									JOINT index_01_l
									{
										OFFSET 0.092008 -0.031038 0.000297
										CHANNELS 6 Xposition Yposition Zposition Xrotation Yrotation Zrotation
										JOINT index_02_l
										{
											OFFSET 0.023321 0.000570 -0.003231
											CHANNELS 6 Xposition Yposition Zposition Xrotation Yrotation Zrotation
											JOINT index_03_l
											{
												OFFSET 0.020689 0.001655 -0.002999
												CHANNELS 6 Xposition Yposition Zposition Xrotation Yrotation Zrotation
												End Site
												{
													OFFSET 0.024098 0.001807 -0.006982
												}
											}
										}
									}
									JOINT middle_01_l
									{
										OFFSET 0.092159 -0.008797 0.003867
										CHANNELS 6 Xposition Yposition Zposition Xrotation Yrotation Zrotation
										JOINT middle_02_l
										{
											OFFSET 0.030470 0.001014 -0.005929
											CHANNELS 6 Xposition Yposition Zposition Xrotation Yrotation Zrotation
											JOINT middle_03_l
											{
												OFFSET 0.025048 -0.000983 -0.004303
												CHANNELS 6 Xposition Yposition Zposition Xrotation Yrotation Zrotation
												End Site
												{
													OFFSET 0.023819 -0.000054 -0.007530
												}
											}
										}
									}
									JOINT pinky_01_l
									{
										OFFSET 0.082862 0.024648 -0.002413
										CHANNELS 6 Xposition Yposition Zposition Xrotation Yrotation Zrotation
										JOINT pinky_02_l
										{
											OFFSET 0.019283 0.001560 -0.001667
											CHANNELS 6 Xposition Yposition Zposition Xrotation Yrotation Zrotation
											JOINT pinky_03_l
											{
												OFFSET 0.014370 0.000155 -0.000951
												CHANNELS 6 Xposition Yposition Zposition Xrotation Yrotation Zrotation
												End Site
												{
													OFFSET 0.018072 0.000644 -0.001347
												}
											}
										}
									}
									JOINT ring_01_l
									{
										OFFSET 0.088673 0.009084 0.002846
										CHANNELS 6 Xposition Yposition Zposition Xrotation Yrotation Zrotation
										JOINT ring_02_l
										{
											OFFSET 0.027029 0.001408 -0.004536
											CHANNELS 6 Xposition Yposition Zposition Xrotation Yrotation Zrotation
											JOINT ring_03_l
											{
												OFFSET 0.022190 -0.000874 -0.003490
												CHANNELS 6 Xposition Yposition Zposition Xrotation Yrotation Zrotation
												End Site
												{
													OFFSET 0.023754 0.000552 -0.006765
												}
											}
										}
									}
									JOINT thumb_01_l
									{
										OFFSET 0.031330 -0.025202 -0.003922
										CHANNELS 6 Xposition Yposition Zposition Xrotation Yrotation Zrotation
										JOINT thumb_02_l
										{
											OFFSET 0.009065 -0.015656 -0.021920
											CHANNELS 6 Xposition Yposition Zposition Xrotation Yrotation Zrotation
											JOINT thumb_03_l
											{
												OFFSET 0.032392 -0.002609 -0.004763
												CHANNELS 6 Xposition Yposition Zposition Xrotation Yrotation Zrotation
												End Site
												{
													OFFSET 0.025615 0.005264 -0.001529
												}
											}
										}
									}
								}
							}
						}
					}
					JOINT clavicle_r
					{
						OFFSET -0.022930 -0.009180 0.229520
						CHANNELS 6 Xposition Yposition Zposition Xrotation Yrotation Zrotation
						JOINT upperarm_r
						{
							OFFSET -0.136756 0.000470 0.015666
							CHANNELS 6 Xposition Yposition Zposition Xrotation Yrotation Zrotation
							JOINT lowerarm_r
							{
								OFFSET -0.234220 0.004524 -0.003137
								CHANNELS 6 Xposition Yposition Zposition Xrotation Yrotation Zrotation
								JOINT hand_r
								{
									OFFSET -0.212684 0.006104 0.000160
									CHANNELS 6 Xposition Yposition Zposition Xrotation Yrotation Zrotation
									JOINT index_01_r
									{
										OFFSET -0.092008 -0.031038 0.000298
										CHANNELS 6 Xposition Yposition Zposition Xrotation Yrotation Zrotation
										JOINT index_02_r
										{
											OFFSET -0.023321 0.000570 -0.003231
											CHANNELS 6 Xposition Yposition Zposition Xrotation Yrotation Zrotation
											JOINT index_03_r
											{
												OFFSET -0.020689 0.001655 -0.002998
												CHANNELS 6 Xposition Yposition Zposition Xrotation Yrotation Zrotation
												End Site
												{
													OFFSET -0.024098 0.001807 -0.006982
												}
											}
										}
									}
									JOINT middle_01_r
									{
										OFFSET -0.092159 -0.008797 0.003867
										CHANNELS 6 Xposition Yposition Zposition Xrotation Yrotation Zrotation
										JOINT middle_02_r
										{
											OFFSET -0.030470 0.001014 -0.005929
											CHANNELS 6 Xposition Yposition Zposition Xrotation Yrotation Zrotation
											JOINT middle_03_r
											{
												OFFSET -0.025048 -0.000983 -0.004303
												CHANNELS 6 Xposition Yposition Zposition Xrotation Yrotation Zrotation
												End Site
												{
													OFFSET -0.023819 -0.000054 -0.007531
												}
											}
										}
									}
									JOINT pinky_01_r
									{
										OFFSET -0.082862 0.024648 -0.002413
										CHANNELS 6 Xposition Yposition Zposition Xrotation Yrotation Zrotation
										JOINT pinky_02_r
										{
											OFFSET -0.019283 0.001560 -0.001667
											CHANNELS 6 Xposition Yposition Zposition Xrotation Yrotation Zrotation
											JOINT pinky_03_r
											{
												OFFSET -0.014370 0.000155 -0.000951
												CHANNELS 6 Xposition Yposition Zposition Xrotation Yrotation Zrotation
												End Site
												{
													OFFSET -0.018072 0.000644 -0.001347
												}
											}
										}
									}
									JOINT ring_01_r
									{
										OFFSET -0.088673 0.009084 0.002846
										CHANNELS 6 Xposition Yposition Zposition Xrotation Yrotation Zrotation
										JOINT ring_02_r
										{
											OFFSET -0.027029 0.001408 -0.004536
											CHANNELS 6 Xposition Yposition Zposition Xrotation Yrotation Zrotation
											JOINT ring_03_r
											{
												OFFSET -0.022190 -0.000874 -0.003490
												CHANNELS 6 Xposition Yposition Zposition Xrotation Yrotation Zrotation
												End Site
												{
													OFFSET -0.023754 0.000552 -0.006765
												}
											}
										}
									}
									JOINT thumb_01_r
									{
										OFFSET -0.031330 -0.025202 -0.003922
										CHANNELS 6 Xposition Yposition Zposition Xrotation Yrotation Zrotation
										JOINT thumb_02_r
										{
											OFFSET -0.009062 -0.015655 -0.021922
											CHANNELS 6 Xposition Yposition Zposition Xrotation Yrotation Zrotation
											JOINT thumb_03_r
											{
												OFFSET -0.032392 -0.002610 -0.004767
												CHANNELS 6 Xposition Yposition Zposition Xrotation Yrotation Zrotation
												End Site
												{
													OFFSET -0.025615 0.005263 -0.001531
												}
											}
										}
									}
								}
							}
						}
					}
					JOINT neck_01
					{
						OFFSET 0.000000 0.013340 0.298010
						CHANNELS 6 Xposition Yposition Zposition Xrotation Yrotation Zrotation
						JOINT head
						{
							OFFSET 0.000000 -0.041895 0.111745
							CHANNELS 6 Xposition Yposition Zposition Xrotation Yrotation Zrotation
							End Site
							{
								OFFSET 0.000000 0.005880 0.136515
							}
						}
					}
				}
			}
		}
		JOINT thigh_l
		{
			OFFSET 0.095465 0.006193 -0.011170
			CHANNELS 6 Xposition Yposition Zposition Xrotation Yrotation Zrotation
			JOINT calf_l
			{
				OFFSET 0.013985 -0.030567 -0.374073
				CHANNELS 6 Xposition Yposition Zposition Xrotation Yrotation Zrotation
				JOINT foot_l
				{
					OFFSET 0.004191 0.018160 -0.382004
					CHANNELS 6 Xposition Yposition Zposition Xrotation Yrotation Zrotation
					JOINT ball_l
					{
						OFFSET 0.005407 -0.109393 -0.057975
						CHANNELS 6 Xposition Yposition Zposition Xrotation Yrotation Zrotation
						End Site
						{
							OFFSET -0.004640 -0.061770 0.000970
						}
					}
				}
			}
		}
		JOINT thigh_r
		{
			OFFSET -0.095465 0.006193 -0.011170
			CHANNELS 6 Xposition Yposition Zposition Xrotation Yrotation Zrotation
			JOINT calf_r
			{
				OFFSET -0.013985 -0.030567 -0.374073
				CHANNELS 6 Xposition Yposition Zposition Xrotation Yrotation Zrotation
				JOINT foot_r
				{
					OFFSET -0.004191 0.018160 -0.382004
					CHANNELS 6 Xposition Yposition Zposition Xrotation Yrotation Zrotation
					JOINT ball_r
					{
						OFFSET -0.005407 -0.109393 -0.057975
						CHANNELS 6 Xposition Yposition Zposition Xrotation Yrotation Zrotation
						End Site
						{
							OFFSET 0.004641 -0.061770 0.000970
						}
					}
				}
			}
		}
	}
}
MOTION
Frames: 4
Frame Time: 0.040000
0 0 -0.2 0 0 180 0.000000 -0.050080 0.933467 -5.789912 -0.265528 88.286602 -0.000000 0.045650 0.072925 8.688042 -7.298351 34.325952 -0.000000 -0.022105 0.063381 8.584490 1.970902 14.872911 -0.000000 -0.012215 0.091101 -0.000001 -0.000004 0.000001 0.022930 -0.009179 0.229522 -2.867484 7.898709 28.183061 0.136754 0.000470 0.015666 47.250272 54.701189 -112.126141 0.234220 0.004523 -0.003137 -5.558447 28.585890 -26.061610 0.212684 0.006106 0.000161 -85.094588 10.781106 19.328624 0.092008 -0.031038 0.000297 -0.000002 0.000001 0.000000 0.023321 0.000570 -0.003231 0.000003 0.000001 -0.000001 0.020689 0.001655 -0.002999 0.000004 -0.000003 -0.000001 0.092159 -0.008797 0.003867 0.000003 -0.000002 0.000000 0.030470 0.001014 -0.005929 0.000003 0.000000 0.000000 0.025048 -0.000983 -0.004303 0.000004 0.000001 0.000000 0.082862 0.024648 -0.002414 -0.000000 0.000000 0.000000 0.019283 0.001560 -0.001667 -0.000001 -0.000000 0.000000 0.014370 0.000155 -0.000951 -0.000000 0.000001 0.000000 0.088673 0.009084 0.002846 0.000001 -0.000001 0.000000 0.027029 0.001408 -0.004536 -0.000000 0.000000 0.000000 0.022190 -0.000874 -0.003490 -0.000001 -0.000002 -0.000001 0.031330 -0.025203 -0.003922 -0.000003 -0.000001 -0.000003 0.009065 -0.015656 -0.021920 -0.000000 -0.000001 -0.000000 0.032392 -0.002609 -0.004763 0.000000 -0.000002 -0.000001 -0.022930 -0.009179 0.229522 -0.535421 8.474601 27.997454 -0.136757 0.000469 0.015664 -45.574386 -44.825534 -2.073241 -0.234221 0.004524 -0.003137 73.194787 -70.225082 116.132696 -0.212683 0.006104 0.000159 -16.979089 42.531912 6.353326 -0.092008 -0.031037 0.000298 0.000002 0.000000 -0.000002 -0.023321 0.000570 -0.003231 -0.000002 -0.000002 0.000001 -0.020689 0.001655 -0.002998 0.000001 -0.000001 0.000001 -0.092159 -0.008797 0.003867 0.000001 -0.000003 -0.000002 -0.030470 0.001014 -0.005929 0.000003 -0.000001 0.000003 -0.025048 -0.000983 -0.004303 -0.000002 0.000000 0.000000 -0.082862 0.024648 -0.002413 0.000004 -0.000001 -0.000002 -0.019283 0.001559 -0.001667 0.000000 -0.000001 0.000002 -0.014370 0.000155 -0.000951 0.000006 -0.000002 0.000001 -0.088673 0.009084 0.002846 0.000002 -0.000003 -0.000002 -0.027029 0.001408 -0.004536 0.000003 -0.000000 0.000001 -0.022190 -0.000874 -0.003490 -0.000000 0.000005 0.000001 -0.031330 -0.025202 -0.003922 -0.000002 -0.000003 -0.000001 -0.009062 -0.015655 -0.021922 0.000002 0.000005 0.000002 -0.032392 -0.002610 -0.004767 -0.000001 0.000001 -0.000003 0.000000 0.013341 0.298010 1.077052 -9.391870 -0.012272 -0.000001 -0.041896 0.111739 2.159159 6.830549 18.556951 0.095465 0.006192 -0.011171 19.970662 6.590345 0.468829 0.013985 -0.030567 -0.374069 34.177894 5.740404 -1.270527 0.004191 0.018160 -0.382004 0.000002 0.000002 0.000004 0.005408 -0.109391 -0.057975 -0.000002 -0.000007 0.000004 -0.095464 0.006193 -0.011170 -70.434837 -0.317446 -0.229927 -0.013986 -0.030566 -0.374073 79.096295 -9.375651 7.898783 -0.004190 0.018158 -0.382005 -0.000001 -0.000003 -0.000006 -0.005408 -0.109390 -0.057975 -0.000004 0.000000 -0.000007 
0 0 -0.2 0 0 180 -0.000000 -0.050080 0.927682 -5.614825 -0.234817 88.289668 -0.000000 0.045650 0.072925 8.953416 -6.996672 34.376318 -0.000000 -0.022105 0.063379 8.584492 1.970897 14.872896 -0.000000 -0.012215 0.091101 0.000001 -0.000002 0.000000 0.022930 -0.009179 0.229520 -2.793822 7.943034 27.807780 0.136756 0.000470 0.015666 46.588252 54.653937 -112.182906 0.234221 0.004524 -0.003137 -5.558454 28.585877 -26.061603 0.212684 0.006104 0.000160 -85.094588 10.781110 19.328621 0.092008 -0.031038 0.000297 0.000000 0.000003 0.000000 0.023321 0.000570 -0.003231 0.000003 -0.000001 0.000000 0.020689 0.001655 -0.002999 0.000006 -0.000002 -0.000000 0.092159 -0.008797 0.003867 0.000004 -0.000001 -0.000001 0.030470 0.001014 -0.005929 0.000001 0.000001 0.000000 0.025048 -0.000983 -0.004303 0.000001 -0.000001 0.000000 0.082862 0.024648 -0.002413 -0.000000 0.000002 -0.000000 0.019283 0.001560 -0.001667 0.000001 0.000000 0.000001 0.014370 0.000155 -0.000951 0.000002 0.000000 -0.000000 0.088673 0.009084 0.002846 0.000002 0.000001 -0.000000 0.027029 0.001408 -0.004536 -0.000003 0.000000 -0.000000 0.022190 -0.000874 -0.003490 0.000002 0.000002 0.000000 0.031330 -0.025203 -0.003922 0.000004 0.000002 -0.000002 0.009065 -0.015656 -0.021920 -0.000005 0.000002 0.000003 0.032392 -0.002609 -0.004763 0.000000 -0.000002 0.000000 -0.022930 -0.009180 0.229522 -0.479145 8.495968 27.612385 -0.136756 0.000470 0.015663 -46.237372 -44.860659 -2.008945 -0.234220 0.004524 -0.003137 73.194787 -70.225075 116.132737 -0.212684 0.006104 0.000160 -16.979090 42.531906 6.353322 -0.092008 -0.031038 0.000298 -0.000003 0.000001 0.000002 -0.023321 0.000570 -0.003231 -0.000004 0.000000 -0.000000 -0.020689 0.001655 -0.002998 -0.000001 0.000002 0.000000 -0.092159 -0.008797 0.003867 0.000005 0.000001 -0.000000 -0.030470 0.001014 -0.005929 0.000003 -0.000000 0.000000 -0.025048 -0.000983 -0.004303 -0.000002 0.000001 -0.000002 -0.082862 0.024648 -0.002413 0.000000 -0.000001 -0.000001 -0.019283 0.001559 -0.001667 0.000009 0.000000 -0.000001 -0.014370 0.000155 -0.000951 0.000003 -0.000001 -0.000000 -0.088673 0.009084 0.002846 -0.000000 0.000001 -0.000000 -0.027029 0.001408 -0.004536 -0.000000 0.000000 -0.000000 -0.022190 -0.000874 -0.003490 0.000002 0.000005 -0.000001 -0.031330 -0.025203 -0.003922 -0.000004 -0.000004 -0.000003 -0.009062 -0.015655 -0.021922 0.000000 0.000003 0.000001 -0.032392 -0.002610 -0.004767 -0.000003 0.000002 0.000001 0.000000 0.013339 0.298014 1.397810 -9.238212 1.253241 0.000000 -0.041895 0.111743 1.682569 6.422979 17.815450 0.095465 0.006192 -0.011170 10.924854 6.347945 0.802575 0.013985 -0.030567 -0.374073 37.542869 6.701071 -1.867568 0.004191 0.018162 -0.382003 0.000010 0.000009 0.000003 0.005408 -0.109391 -0.057975 0.000001 -0.000002 0.000007 -0.095466 0.006193 -0.011170 -67.207067 0.254815 -0.829655 -0.013985 -0.030566 -0.374074 92.037530 -10.086420 10.566790 -0.004190 0.018158 -0.382005 -0.000000 -0.000000 -0.000004 -0.005408 -0.109391 -0.057976 0.000000 -0.000003 0.000003 
0 0 -0.2 0 0 180 -0.000000 -0.050080 0.911389 -5.121667 -0.148243 88.297810 0.000000 0.045650 0.072925 9.698747 -6.145584 34.510494 0.000000 -0.022105 0.063379 8.584492 1.970899 14.872896 -0.000000 -0.012215 0.091102 -0.000001 -0.000002 -0.000001 0.022930 -0.009181 0.229520 -2.605612 8.035113 26.744395 0.136756 0.000470 0.015662 44.726165 54.522777 -112.347657 0.234220 0.004525 -0.003136 -5.558439 28.585890 -26.061608 0.212684 0.006102 0.000162 -85.094588 10.781116 19.328621 0.092008 -0.031038 0.000297 0.000000 0.000001 -0.000001 0.023321 0.000570 -0.003231 -0.000002 -0.000001 0.000000 0.020689 0.001655 -0.002999 0.000002 -0.000003 -0.000002 0.092159 -0.008797 0.003867 0.000006 -0.000002 -0.000001 0.030470 0.001014 -0.005929 0.000003 0.000000 -0.000000 0.025048 -0.000983 -0.004303 0.000000 0.000001 -0.000001 0.082862 0.024648 -0.002413 0.000001 -0.000001 -0.000002 0.019283 0.001560 -0.001667 -0.000001 0.000000 0.000000 0.014370 0.000155 -0.000951 -0.000003 0.000000 -0.000000 0.088673 0.009084 0.002846 0.000000 -0.000000 -0.000001 0.027029 0.001408 -0.004536 -0.000002 0.000000 -0.000000 0.022190 -0.000874 -0.003490 -0.000001 0.000000 -0.000002 0.031330 -0.025203 -0.003922 -0.000000 0.000003 -0.000005 0.009065 -0.015656 -0.021920 -0.000002 0.000001 -0.000000 0.032392 -0.002609 -0.004763 0.000002 -0.000000 -0.000002 -0.022930 -0.009179 0.229522 -0.359496 8.524163 26.533789 -0.136756 0.000470 0.015664 -48.107877 -44.962473 -1.830657 -0.234220 0.004525 -0.003135 73.194787 -70.225089 116.132696 -0.212684 0.006106 0.000160 -16.979101 42.531902 6.353326 -0.092008 -0.031038 0.000298 0.000001 -0.000000 0.000001 -0.023321 0.000570 -0.003231 -0.000000 -0.000002 -0.000001 -0.020689 0.001655 -0.002998 -0.000001 0.000001 0.000003 -0.092159 -0.008797 0.003867 0.000003 -0.000002 -0.000001 -0.030470 0.001014 -0.005929 0.000003 -0.000001 -0.000001 -0.025048 -0.000983 -0.004303 -0.000005 0.000000 0.000001 -0.082862 0.024648 -0.002413 0.000000 0.000000 0.000002 -0.019283 0.001560 -0.001667 0.000000 -0.000002 0.000001 -0.014370 0.000155 -0.000951 0.000002 0.000001 -0.000001 -0.088673 0.009084 0.002846 -0.000004 -0.000002 0.000000 -0.027029 0.001408 -0.004536 -0.000004 -0.000002 -0.000002 -0.022190 -0.000874 -0.003490 -0.000003 -0.000000 -0.000001 -0.031330 -0.025203 -0.003922 0.000002 -0.000002 -0.000000 -0.009062 -0.015655 -0.021922 0.000004 0.000003 -0.000004 -0.032392 -0.002610 -0.004767 -0.000003 -0.000001 0.000003 -0.000000 0.013341 0.298006 2.285055 -8.776551 4.841038 0.000000 -0.041896 0.111747 0.313695 5.305778 15.679731 0.095464 0.006192 -0.011170 3.368078 6.088708 0.967629 0.013985 -0.030567 -0.374075 35.770155 7.443172 -2.094793 0.004191 0.018158 -0.382005 0.000007 -0.000000 -0.000001 0.005407 -0.109393 -0.057975 0.000004 -0.000002 0.000000 -0.095465 0.006193 -0.011170 -57.020216 -0.425101 -1.784285 -0.013985 -0.030567 -0.374075 98.775190 -9.629669 11.158880 -0.004192 0.018160 -0.382004 -0.000008 0.000000 -0.000002 -0.005407 -0.109392 -0.057975 0.000003 0.000004 0.000003 
0 0 -0.2 0 0 180 0.000000 -0.050080 0.890468 -4.488455 -0.036979 88.307167 -0.000000 0.045650 0.072925 10.651343 -5.050250 34.666188 -0.000000 -0.022105 0.063380 8.584492 1.970901 14.872903 -0.000000 -0.012215 0.091100 -0.000000 0.000001 -0.000003 0.022930 -0.009179 0.229520 -2.351864 8.082862 25.366622 0.136755 0.000469 0.015668 42.341965 54.359013 -112.569024 0.234220 0.004524 -0.003136 -5.558447 28.585878 -26.061608 0.212684 0.006104 0.000160 -85.094588 10.781091 19.328623 0.092008 -0.031038 0.000297 -0.000001 0.000001 0.000001 0.023321 0.000570 -0.003231 -0.000004 -0.000000 -0.000000 0.020689 0.001655 -0.002999 0.000004 -0.000003 -0.000001 0.092159 -0.008797 0.003867 0.000002 -0.000000 -0.000001 0.030470 0.001014 -0.005929 0.000001 0.000000 0.000000 0.025048 -0.000983 -0.004303 0.000003 0.000003 -0.000000 0.082862 0.024648 -0.002413 0.000002 -0.000001 -0.000001 0.019283 0.001560 -0.001667 -0.000001 0.000000 0.000000 0.014370 0.000155 -0.000951 -0.000001 -0.000000 0.000000 0.088673 0.009084 0.002846 0.000002 0.000002 0.000001 0.027029 0.001408 -0.004536 -0.000002 0.000000 -0.000000 0.022190 -0.000874 -0.003490 0.000000 0.000000 -0.000000 0.031330 -0.025203 -0.003922 0.000002 0.000003 0.000001 0.009065 -0.015656 -0.021920 -0.000002 -0.000003 -0.000000 0.032392 -0.002609 -0.004763 0.000002 -0.000001 0.000001 -0.022930 -0.009179 0.229520 -0.204464 8.501370 25.145869 -0.136756 0.000469 0.015663 -50.514829 -45.099179 -1.608238 -0.234221 0.004525 -0.003137 73.194807 -70.225089 116.132723 -0.212683 0.006106 0.000158 -16.979082 42.531895 6.353323 -0.092008 -0.031038 0.000298 -0.000004 0.000000 0.000001 -0.023321 0.000570 -0.003231 -0.000000 -0.000003 -0.000000 -0.020689 0.001655 -0.002998 0.000001 0.000002 0.000003 -0.092159 -0.008797 0.003867 -0.000000 0.000002 0.000001 -0.030470 0.001014 -0.005929 0.000001 -0.000001 -0.000000 -0.025048 -0.000983 -0.004303 0.000000 0.000002 0.000001 -0.082862 0.024648 -0.002413 0.000002 0.000004 0.000002 -0.019283 0.001559 -0.001667 0.000002 -0.000003 -0.000001 -0.014370 0.000155 -0.000951 -0.000004 -0.000003 0.000001 -0.088673 0.009084 0.002846 -0.000000 0.000001 0.000002 -0.027029 0.001408 -0.004536 -0.000006 0.000001 0.000001 -0.022190 -0.000874 -0.003490 -0.000003 0.000001 -0.000001 -0.031330 -0.025202 -0.003922 -0.000001 -0.000001 0.000001 -0.009062 -0.015655 -0.021922 0.000002 0.000004 0.000001 -0.032392 -0.002610 -0.004767 -0.000005 0.000000 0.000001 0.000000 0.013341 0.298010 3.385053 -8.127736 9.502581 0.000000 -0.041894 0.111747 -1.498986 3.944016 12.822968 0.095465 0.006192 -0.011170 -1.781976 5.932789 0.951166 0.013985 -0.030567 -0.374073 29.581884 7.660908 -1.803401 0.004191 0.018161 -0.382004 -0.000004 -0.000006 0.000001 0.005408 -0.109394 -0.057971 0.000006 0.000005 -0.000003 -0.095465 0.006193 -0.011170 -42.191981 -1.709985 -2.480357 -0.013985 -0.030568 -0.374075 98.679541 -9.247955 10.501850 -0.004190 0.018161 -0.382004 -0.000008 -0.000002 -0.000001 -0.005408 -0.109392 -0.057975 -0.000015 -0.000001 0.000002 
